<?xml version="1.0" encoding="utf-8"?>
<!-- Generator: Adobe Illustrator 24.2.1, SVG Export Plug-In . SVG Version: 6.00 Build 0)  -->
<svg version="1.1" id="レイヤー_1" xmlns="http://www.w3.org/2000/svg" xmlns:xlink="http://www.w3.org/1999/xlink" x="0px"
	 y="0px" viewBox="0 0 512 512" style="enable-background:new 0 0 512 512;" xml:space="preserve">
<style type="text/css">
	.st0{fill:#323232;}
</style>
<g id="c133de6af664cd4f011a55de6b001b19">
	<path class="st0" d="M483.1,0.5l-42.6,461.3L256,511.5L71.5,461.8L28.9,0.5H483.1z M397.3,94.3H255.8h-144l6.9,55.7h137.1h7.7
		l-7.7,3.2l-132.1,55l4.4,54.5l127.7,0.4l68.4,0.2l-4.4,72.6l-64.1,18v-0.1l-0.5,0.1l-61.9-15.6l-3.8-45.1h-0.2h-57.4h-0.2l7.5,87
		l116.4,34.4v-0.1l0.2,0.1L371.8,381l15-172.8h-131h-0.3l0.3-0.1L391.7,150L397.3,94.3z"/>
</g>
</svg>
