<?xml version="1.0" encoding="utf-8"?>
<!-- Generator: Adobe Illustrator 24.2.1, SVG Export Plug-In . SVG Version: 6.00 Build 0)  -->
<svg version="1.1" id="レイヤー_1" xmlns="http://www.w3.org/2000/svg" xmlns:xlink="http://www.w3.org/1999/xlink" x="0px"
	 y="0px" viewBox="0 0 512 512" style="enable-background:new 0 0 512 512;" xml:space="preserve">
<style type="text/css">
	.st0{fill:#323232;}
</style>
<g id="c133de6af664cd4f011a55de6b0011b2">
	<path class="st0" d="M30.7,0.5l41,459.9l184,51.1l184.5-51.1l41-459.8H30.7z M395.8,109.6l-2.6,28.6l-1.1,12.7h-0.2H256h-0.2h-79.6
		l5.2,57.8h74.4h0.2h115.7h15.2l-1.4,15.1l-13.3,148.5l-0.8,9.5l-115.4,32v0l-0.3,0.1l-115.5-32.1l-7.9-88.6h26.1h30.5l4,45l62.8,17
		l0.1,0v0l62.9-17l6.5-73.2H256h-0.2h-126l-13.9-155.4l-1.4-15.1h141.2h0.2h141.1L395.8,109.6z"/>
</g>
</svg>
