<?xml version="1.0" encoding="utf-8"?>
<!-- Generator: Adobe Illustrator 24.2.1, SVG Export Plug-In . SVG Version: 6.00 Build 0)  -->
<svg version="1.1" id="レイヤー_1" xmlns="http://www.w3.org/2000/svg" xmlns:xlink="http://www.w3.org/1999/xlink" x="0px"
	 y="0px" viewBox="0 0 512 512" style="enable-background:new 0 0 512 512;" xml:space="preserve">
<style type="text/css">
	.st0{fill:#323232;}
</style>
<g id="_x32_069a460dcf28295e231f3111e03585e">
	<path class="st0" d="M227.6,218l19.2,60.1h-62.6L203,218c4.3-14.5,8-31.5,11.6-45.6h0.7C218.9,186.5,222.9,203.1,227.6,218z
		 M511.5,85.7v340.7c0,46.8-38.3,85.2-85.2,85.2H85.7c-46.8,0-85.2-38.3-85.2-85.2V85.7c0-46.8,38.3-85.2,85.2-85.2h340.7
		C473.2,0.5,511.5,38.8,511.5,85.7z M324.2,380.9l-79.3-244h-56.8l-78.2,244h46l21-69.1h77.5l22.1,69.1H324.2z M399.5,204.6h-44.9
		v176.3h44.9V204.6z M402.1,155.4c-0.4-13.8-9.8-24.3-25-24.3c-14.8,0-25,10.5-25,24.3c0,13.4,9.8,23.9,24.6,23.9
		C392.3,179.3,402.1,168.8,402.1,155.4z"/>
</g>
</svg>
