<?xml version="1.0" encoding="utf-8"?>
<!-- Generator: Adobe Illustrator 24.2.1, SVG Export Plug-In . SVG Version: 6.00 Build 0)  -->
<svg version="1.1" id="レイヤー_1" xmlns="http://www.w3.org/2000/svg" xmlns:xlink="http://www.w3.org/1999/xlink" x="0px"
	 y="0px" viewBox="0 0 512 512" style="enable-background:new 0 0 512 512;" xml:space="preserve">
<style type="text/css">
	.st0{fill-rule:evenodd;clip-rule:evenodd;fill:#323232;}
</style>
<g id="_x35_151e0c8492e5103c096af88a51e75c7">
	<path class="st0" d="M1,0.5C0.4,0.6,0.5,1.3,0.5,2c0,169.7,0,339.3,0,509c169.4,1.1,340.8,0.2,511,0.5c0-170.3,0-340.6,0-510.9
		C341.3,0.5,171.2,0.5,1,0.5z M259.9,452.2c-11.8,11.9-30.5,18.9-53.4,18.9c-37.6,0-58.5-18.3-71.9-43.7c12.8-8.2,26-16.1,39.3-23.8
		c5.5,15.3,23.9,32.4,44.7,21.9c13.2-6.7,11.7-27,11.7-49.1c0-45.8,0-98.6,0-139.9c0-0.7-0.1-1.4,0.5-1.5c15.7,0,31.4,0,47.1,0
		c0,36.8,0,78.4,0,117.5C277.9,395.2,280.9,431,259.9,452.2z M470.7,409.9c-2.7,39.9-35.2,61.1-79.2,61.2
		c-43.1,0.1-70.6-19-87.4-48.6c12.1-8.3,25.8-15,38.4-22.8c10.1,15.8,27.5,30.9,53.4,28.7c16.1-1.4,34.9-14.6,24.3-34.5
		c-5.1-9.7-17.5-14.6-28.7-19.4c-35.4-15.4-76.8-29.6-72.9-85c1.3-18.5,9.9-31.5,20.9-40.8c11.3-9.5,26.5-15.9,46.6-16.5
		c36.6-1.2,56.7,15.1,70.4,37.9c-11.7,8.9-24.5,16.6-37.4,24.3c-4.2-13-24.6-25.7-41.8-18c-7.8,3.5-14.8,13.8-10.7,26.2
		c3.7,11.1,18.6,17.2,30.6,22.3C433.7,340.5,474.3,355.7,470.7,409.9z"/>
</g>
</svg>
