<?xml version="1.0" encoding="utf-8"?>
<!-- Generator: Adobe Illustrator 24.2.1, SVG Export Plug-In . SVG Version: 6.00 Build 0)  -->
<svg version="1.1" id="レイヤー_1" xmlns="http://www.w3.org/2000/svg" xmlns:xlink="http://www.w3.org/1999/xlink" x="0px"
	 y="0px" viewBox="0 0 512 512" style="enable-background:new 0 0 512 512;" xml:space="preserve">
<style type="text/css">
	.st0{fill:#323232;}
</style>
<g id="_x32_069a460dcf28295e231f3111e037552">
	<path class="st0" d="M426.3,0.5H85.7C38.8,0.5,0.5,38.8,0.5,85.7v340.7c0,46.8,38.3,85.2,85.2,85.2h340.7
		c46.8,0,85.2-38.3,85.2-85.2V85.7C511.5,38.8,473.2,0.5,426.3,0.5z M245.3,260.5c-17.7,17.7-45.6,26.1-77.1,26.1
		c-8.3,0-15.9-0.4-21.7-1.5v91.9h-44.2V136.4c15.9-2.9,38-5.1,68.1-5.1c32.6,0,56.5,6.9,72,19.9c14.5,11.9,23.9,31.1,23.9,53.9
		C266.3,228.3,259.1,247.5,245.3,260.5z M338,380.7c-21.4,0-40.5-5.1-53.6-12.3l8.7-32.2c10.1,6.2,29.3,12.7,45.2,12.7
		c19.5,0,28.2-8,28.2-19.5c0-11.9-7.2-18.1-29-25.7c-34.4-11.9-48.9-30.8-48.5-51.4c0-31.1,25.7-55.4,66.6-55.4
		c19.5,0,36.6,5.1,46.7,10.5l-8.7,31.5c-7.6-4.3-21.7-10.1-37.3-10.1c-15.9,0-24.6,7.6-24.6,18.5c0,11.2,8.3,16.7,30.8,24.6
		c31.9,11.6,46.7,27.9,47.1,53.9C409.7,357.5,384.7,380.7,338,380.7z M221.8,207c0,28.6-20.3,44.9-53.6,44.9c-9,0-16.3-0.4-21.7-1.8
		v-82.5c4.7-1.1,13.4-2.2,25.7-2.2C203,165.3,221.8,179.8,221.8,207z"/>
</g>
</svg>
