<?xml version="1.0" encoding="utf-8"?>
<!-- Generator: Adobe Illustrator 24.2.1, SVG Export Plug-In . SVG Version: 6.00 Build 0)  -->
<svg version="1.1" id="レイヤー_1" xmlns="http://www.w3.org/2000/svg" xmlns:xlink="http://www.w3.org/1999/xlink" x="0px"
	 y="0px" viewBox="0 0 512 512" style="enable-background:new 0 0 512 512;" xml:space="preserve">
<style type="text/css">
	.st0{fill:#323232;}
</style>
<g id="_x35_151e0c8492e5103c096af88a51e2ea6">
	<path class="st0" d="M401.1,224c3.7,4.1,4.6,11.2,2.7,21.2c-2,10.4-5.9,17.9-11.7,22.3c-5.8,4.5-14.6,6.7-26.4,6.7h-17.8l11-56.4
		h20.1C389.9,217.8,397.3,219.9,401.1,224z M149.8,217.8h-20.1l-11,56.4h17.8c11.8,0,20.6-2.2,26.4-6.7c5.8-4.5,9.7-11.9,11.7-22.3
		c1.9-10,1.1-17.1-2.7-21.2C168.3,219.9,160.9,217.8,149.8,217.8z M511.5,256c0,74.2-114.4,134.4-255.5,134.4S0.5,330.2,0.5,256
		c0-74.2,114.4-134.4,255.5-134.4S511.5,181.8,511.5,256z M198.5,265.3c3-5.4,5.2-11.5,6.5-18c3.1-16,0.8-28.4-7-37.3
		c-7.8-8.9-20.2-13.4-37.1-13.4h-56.4L78.3,331.3h29.3l7-35.8h25.1c11.1,0,20.2-1.2,27.4-3.5c7.2-2.3,13.7-6.2,19.5-11.7
		C191.5,275.7,195.5,270.7,198.5,265.3z M301.8,295.5l12.2-62.7c2.5-12.7,0.6-22-5.6-27.7c-6.2-5.7-17.4-8.5-33.8-8.5h-25.9l7-35.8
		h-29.1l-26.2,134.7h29.1l15-77.2h23.3c7.4,0,12.3,1.2,14.6,3.7c2.3,2.5,2.8,7.1,1.5,13.9l-11.6,59.6L301.8,295.5L301.8,295.5z
		 M427,209.9c-7.8-8.9-20.2-13.4-37.1-13.4h-56.4l-26.2,134.7h29.3l7-35.8h25.1c11.1,0,20.2-1.2,27.4-3.5
		c7.2-2.3,13.7-6.2,19.5-11.7c4.9-4.5,8.9-9.5,11.9-15c3-5.4,5.2-11.5,6.5-18C437.1,231.3,434.8,218.8,427,209.9z"/>
</g>
</svg>
