<?xml version="1.0" encoding="utf-8"?>
<!-- Generator: Adobe Illustrator 24.2.1, SVG Export Plug-In . SVG Version: 6.00 Build 0)  -->
<svg version="1.1" id="レイヤー_1" xmlns="http://www.w3.org/2000/svg" xmlns:xlink="http://www.w3.org/1999/xlink" x="0px"
	 y="0px" viewBox="0 0 512 512" style="enable-background:new 0 0 512 512;" xml:space="preserve">
<style type="text/css">
	.st0{fill:#323232;}
</style>
<g id="_x35_151e0c8492e5103c096af88a51ec286">
	<path class="st0" d="M194.7,246.9h121.8c33.9,0,61-27.9,61-61.9V68.8c0-33-27.9-57.9-61-63.4c-20.9-3.5-42.7-5.1-63.5-5
		c-20.8,0.1-40.7,1.9-58.3,5c-51.6,9.1-61,28.2-61,63.4v46.5h121.9v15.5H133.8H88c-35.4,0-66.5,21.3-76.2,61.8
		C0.7,239,0.2,268,11.9,316.5c8.7,36.1,29.4,61.8,64.8,61.8h41.9v-55.7C118.6,282.4,153.4,246.9,194.7,246.9z M187.1,84.3
		c-12.6,0-22.9-10.4-22.9-23.2c0-12.8,10.2-23.3,22.9-23.3c12.6,0,22.9,10.5,22.9,23.3C209.9,74,199.7,84.3,187.1,84.3z
		 M499.4,192.6c-8.8-35.3-25.5-61.8-61-61.8h-45.8v54.1c0,42-35.6,77.3-76.2,77.3H194.7c-33.3,0-61,28.5-61,62v116.1
		c0,33,28.7,52.5,61,61.9c38.6,11.4,75.6,13.4,121.8,0c30.7-8.9,61-26.8,61-61.9v-46.5H255.7v-15.5h121.8h61
		c35.4,0,48.6-24.7,61-61.8C512.1,278.3,511.5,241.6,499.4,192.6z M324.2,424.8c12.6,0,22.9,10.4,22.9,23.2
		c0,12.9-10.2,23.3-22.9,23.3c-12.6,0-22.9-10.5-22.9-23.3C301.3,435.1,311.6,424.8,324.2,424.8z"/>
</g>
</svg>
