<?xml version="1.0" encoding="utf-8"?>
<!-- Generator: Adobe Illustrator 25.0.0, SVG Export Plug-In . SVG Version: 6.00 Build 0)  -->
<svg version="1.1" id="レイヤー_1" xmlns="http://www.w3.org/2000/svg" xmlns:xlink="http://www.w3.org/1999/xlink" x="0px"
	 y="0px" viewBox="0 0 155.56 283.46" style="enable-background:new 0 0 155.56 283.46;" xml:space="preserve">
<style type="text/css">
	.st0{fill:#FFFFFF;}
</style>
<g>
	<path class="st0" d="M2.63,71.67C8.78,46.59,19.62,27.9,35.17,15.61C48.47,5.2,64.46,0,83.14,0c22.45,0,40.44,7.02,53.98,21.07
		c12.29,12.79,18.43,28.97,18.43,48.53c0,16.55-4.58,31.66-13.73,45.33c-8.53,12.41-24.08,28.9-46.65,49.47
		c-37.62,33.98-64.33,69.03-80.13,105.15h140.51v13.92H0v-12.41c16.05-41.13,44.7-80.51,85.96-118.13
		c22.2-20.19,36.87-36.49,44.02-48.91C136,93.74,139,82.32,139,69.78c0-18.43-5.96-32.73-17.87-42.89
		c-10.03-8.65-22.82-12.98-38.37-12.98c-34.74,0-56.43,21-65.08,63.01L2.63,71.67z"/>
</g>
</svg>
