<?xml version="1.0" encoding="utf-8"?>
<!-- Generator: Adobe Illustrator 25.0.0, SVG Export Plug-In . SVG Version: 6.00 Build 0)  -->
<svg version="1.1" id="レイヤー_1" xmlns="http://www.w3.org/2000/svg" xmlns:xlink="http://www.w3.org/1999/xlink" x="0px"
	 y="0px" viewBox="0 0 158.55 283.46" style="enable-background:new 0 0 158.55 283.46;" xml:space="preserve">
<style type="text/css">
	.st0{fill:#FFFFFF;}
</style>
<g>
	<path class="st0" d="M5.73,50.26C21.13,16.76,45.95,0,80.2,0c21.81,0,39.48,6.84,53.03,20.51c12.07,12.2,18.11,27.29,18.11,45.27
		c0,17.99-5.24,32.89-15.71,44.72c-8.87,9.98-20.88,17.06-36.03,21.25v1.11c20.08,4.8,35.29,14.17,45.64,28.09
		c8.87,12.2,13.31,26.8,13.31,43.8c0,24.76-8.26,44.6-24.76,59.5c-14.04,12.81-31.54,19.22-52.48,19.22
		c-36.96,0-64.06-16.32-81.31-48.97l13.68-8.31c8.13,16.75,18.11,28.46,29.94,35.11c10.1,5.67,22.79,8.5,38.07,8.5
		c19.22,0,34.49-6.59,45.83-19.77c9.85-11.58,14.78-26.3,14.78-44.17c0-21.93-7.21-38.68-21.62-50.26
		c-12.81-10.1-30.06-15.15-51.74-15.15H47.68v-13.67h18.85c22.91,0,40.59-6.28,53.03-18.85c10.59-10.72,15.89-24.64,15.89-41.76
		c0-17.25-6.04-30.74-18.11-40.47c-9.86-8.01-22.24-12.01-37.14-12.01c-29.44,0-49.77,14.72-60.98,44.16L5.73,50.26z"/>
</g>
</svg>
