<?xml version="1.0" encoding="utf-8"?>
<!-- Generator: Adobe Illustrator 24.2.3, SVG Export Plug-In . SVG Version: 6.00 Build 0)  -->
<svg version="1.1" id="レイヤー_1" xmlns="http://www.w3.org/2000/svg" xmlns:xlink="http://www.w3.org/1999/xlink" x="0px"
	 y="0px" viewBox="0 0 218 170.1" style="enable-background:new 0 0 218 170.1;" xml:space="preserve">
<style type="text/css">
	.st0{fill:none;stroke:#505050;stroke-width:2;stroke-linecap:round;stroke-linejoin:round;stroke-miterlimit:10;}
	.st1{fill:none;stroke:#505050;stroke-width:2;stroke-miterlimit:10;}
</style>
<rect x="2.9" y="65.2" class="st0" width="212.2" height="102.7"/>
<polyline class="st0" points="23.5,65.2 23.5,37.8 71.4,37.8 71.4,13.7 37.1,13.7 37.1,3.4 "/>
<line class="st1" x1="13.2" y1="89" x2="26.8" y2="89"/>
<line class="st1" x1="33.8" y1="89" x2="47.4" y2="89"/>
<line class="st1" x1="54.2" y1="89" x2="67.9" y2="89"/>
<line class="st1" x1="74.7" y1="89" x2="88.5" y2="89"/>
<line class="st1" x1="95.3" y1="89" x2="109.1" y2="89"/>
<line class="st1" x1="115.9" y1="89" x2="129.5" y2="89"/>
<line class="st1" x1="136.5" y1="89" x2="150.1" y2="89"/>
<line class="st1" x1="156.9" y1="89" x2="170.6" y2="89"/>
<line class="st1" x1="177.4" y1="89" x2="191.2" y2="89"/>
<line class="st1" x1="13.2" y1="143.8" x2="26.8" y2="143.8"/>
<line class="st1" x1="33.8" y1="143.8" x2="47.4" y2="143.8"/>
<line class="st1" x1="54.2" y1="143.8" x2="143.3" y2="143.8"/>
<line class="st1" x1="170.6" y1="143.8" x2="184.4" y2="143.8"/>
<line class="st1" x1="191.2" y1="143.8" x2="204.8" y2="143.8"/>
<line class="st1" x1="150.1" y1="143.8" x2="163.8" y2="143.8"/>
<line class="st1" x1="26.8" y1="116.4" x2="40.6" y2="116.4"/>
<line class="st1" x1="47.4" y1="116.4" x2="61.1" y2="116.4"/>
<line class="st1" x1="67.9" y1="116.4" x2="81.7" y2="116.4"/>
<line class="st1" x1="88.5" y1="116.4" x2="102.1" y2="116.4"/>
<line class="st1" x1="109.1" y1="116.4" x2="122.7" y2="116.4"/>
<line class="st1" x1="129.5" y1="116.4" x2="143.3" y2="116.4"/>
<line class="st1" x1="150.1" y1="116.4" x2="163.8" y2="116.4"/>
<line class="st1" x1="170.6" y1="116.4" x2="184.4" y2="116.4"/>
<line class="st1" x1="191.2" y1="116.4" x2="204.8" y2="116.4"/>
</svg>
